<svg width="136" height="25" viewBox="0 0 136 25" fill="none" xmlns="http://www.w3.org/2000/svg">
<g clip-path="url(#clip0_0_100)">
<path d="M12.3702 14.1561H11.0056L19.1346 22.8406V24.857H17.252L7.22663 14.1561H2.67065V24.857H0V0H12.3702C14.1379 0.0376131 15.8211 0.799864 17.0585 2.12316C18.296 3.44645 18.9891 5.22533 18.9891 7.07803C18.9891 8.93074 18.296 10.7096 17.0585 12.0329C15.8211 13.3562 14.1379 14.1185 12.3702 14.1561ZM2.67065 2.79854V11.3575H12.3702C13.4349 11.3284 14.4466 10.8647 15.1898 10.0654C15.933 9.26597 16.3489 8.19406 16.3489 7.07803C16.3489 5.96201 15.933 4.8901 15.1898 4.09072C14.4466 3.29133 13.4349 2.82767 12.3702 2.79854H2.67065Z" fill="#510E8C"/>
<path d="M31.8921 5.36657C34.3596 5.36966 36.7251 6.39815 38.4698 8.22643C40.2146 10.0547 41.1961 12.5335 41.199 15.1191V24.8717H38.5284V15.1045C38.5284 13.2602 37.8292 11.4914 36.5846 10.1873C35.3401 8.88316 33.6522 8.1505 31.8921 8.1505C30.1321 8.1505 28.4441 8.88316 27.1996 10.1873C25.955 11.4914 25.2559 13.2602 25.2559 15.1045C25.2577 15.146 25.2642 15.1872 25.2754 15.2271C25.2865 15.267 25.2931 15.3081 25.2948 15.3497H25.2559V24.8571H22.5852V0.166382H25.2559V8.28475C26.11 7.34485 27.1405 6.60036 28.2826 6.09815C29.4247 5.59593 30.6537 5.34685 31.8921 5.36657Z" fill="#F7931E" stroke="#F7931E" stroke-width="0.278483" stroke-miterlimit="10"/>
<path d="M52.6614 22.0586C53.9533 22.0642 55.2162 21.657 56.2816 20.8913C57.3446 20.162 58.1863 19.1291 58.7072 17.9148H61.5756C60.9966 19.921 59.8182 21.6794 58.2139 22.9313C56.6097 24.1831 54.6643 24.8623 52.6641 24.8688C50.8253 24.8682 49.028 24.2965 47.4991 23.226C45.9702 22.1554 44.7785 20.634 44.0744 18.854C43.3704 17.074 43.1856 15.1152 43.5434 13.2252C43.9013 11.3352 44.7857 9.59878 46.085 8.23528C47.3842 6.87178 49.04 5.94239 50.8431 5.56457C52.6462 5.18676 54.5158 5.37746 56.2155 6.11257C57.9152 6.84767 59.3689 8.0942 60.3928 9.69467C61.4167 11.2951 61.965 13.1777 61.9683 15.1046H46.0251C46.0251 16.9489 46.7243 18.7177 47.9688 20.0218C49.2134 21.3259 50.9013 22.0586 52.6614 22.0586ZM56.2816 9.27988C55.2006 8.54283 53.9386 8.1505 52.6488 8.1505C51.3591 8.1505 50.0971 8.54283 49.016 9.27988C47.9519 10.0085 47.113 11.0458 46.6016 12.2652H58.6961C58.1876 11.0473 57.3528 10.0102 56.2928 9.27988H56.2816Z" fill="#510E8C"/>
<path d="M73.4749 5.36646C75.9423 5.36955 78.3078 6.39804 80.0526 8.22632C81.7973 10.0546 82.7788 12.5334 82.7818 15.119V24.8715H80.1111V15.1044C80.0755 13.2844 79.3606 11.5515 78.1197 10.2775C76.8787 9.00349 75.2107 8.28996 73.4735 8.28996C71.7362 8.28996 70.0682 9.00349 68.8273 10.2775C67.5864 11.5515 66.8714 13.2844 66.8358 15.1044V24.8569H64.168V5.30518H66.8358V8.28464C67.6904 7.34452 68.7214 6.59992 69.864 6.0977C71.0066 5.59548 72.236 5.34651 73.4749 5.36646Z" fill="#510E8C"/>
<path d="M100.925 0.166382H103.593V24.857H100.925V21.9389C99.6305 23.321 97.9725 24.2679 96.1625 24.659C94.3524 25.0501 92.4723 24.8677 90.7615 24.1349C89.0508 23.4022 87.587 22.1523 86.5567 20.5445C85.5263 18.9368 84.9761 17.0441 84.9761 15.1074C84.9761 13.1708 85.5263 11.2781 86.5567 9.67033C87.587 8.0626 89.0508 6.81272 90.7615 6.07996C92.4723 5.3472 94.3524 5.16473 96.1625 5.55583C97.9725 5.94693 99.6305 6.89387 100.925 8.27598V0.166382ZM89.5936 20.01C90.6805 21.1461 92.1097 21.8523 93.6377 22.0081C95.1657 22.1639 96.698 21.7598 97.9736 20.8645C99.2491 19.9692 100.189 18.6382 100.633 17.0983C101.077 15.5583 100.998 13.9046 100.409 12.419C99.8199 10.9333 98.7576 9.70759 97.4029 8.95065C96.0483 8.1937 94.485 7.95236 92.9796 8.26772C91.4741 8.58307 90.1196 9.43562 89.1467 10.6801C88.1739 11.9246 87.6429 13.4841 87.6442 15.0929C87.6303 16.0104 87.7962 16.9212 88.1315 17.7689C88.4668 18.6167 88.9644 19.3834 89.5936 20.0216V20.01Z" fill="#510E8C"/>
<path d="M121.736 5.31104H124.407V24.8628H121.736V21.9446C120.442 23.3267 118.784 24.2737 116.974 24.6648C115.164 25.0559 113.283 24.8734 111.573 24.1407C109.862 23.4079 108.398 22.158 107.368 20.5503C106.337 18.9426 105.787 17.0498 105.787 15.1132C105.787 13.1766 106.337 11.2838 107.368 9.67606C108.398 8.06833 109.862 6.81845 111.573 6.08569C113.283 5.35294 115.164 5.17049 116.974 5.56158C118.784 5.95268 120.442 6.89962 121.736 8.28173V5.31104ZM110.408 20.0215C111.494 21.1577 112.924 21.8639 114.452 22.0197C115.98 22.1755 117.512 21.7714 118.788 20.8761C120.063 19.9808 121.003 18.6498 121.447 17.1098C121.891 15.5699 121.812 13.9162 121.223 12.4305C120.634 10.9449 119.572 9.71919 118.217 8.96224C116.862 8.2053 115.299 7.96394 113.794 8.27929C112.288 8.59465 110.934 9.4472 109.961 10.6917C108.988 11.9362 108.457 13.4957 108.458 15.1044C108.446 16.02 108.612 16.9286 108.948 17.7742C109.283 18.6198 109.78 19.3846 110.408 20.0215Z" fill="#510E8C"/>
<path d="M131.274 15.7494L132.642 18.653L135.702 19.1199L133.488 21.3815L134.012 24.5739L131.274 23.0682L128.537 24.5739L129.06 21.3815L126.846 19.1199L129.907 18.653L131.274 15.7494Z" fill="#F7931E" stroke="#F7931E" stroke-width="0.278483" stroke-miterlimit="10"/>
</g>
<defs>
<clipPath id="clip0_0_100">
<rect width="136" height="25" fill="white"/>
</clipPath>
</defs>
</svg>
