<svg width="182" height="32" viewBox="0 0 182 32" fill="none" xmlns="http://www.w3.org/2000/svg">
<g clip-path="url(#clip0_129_14728)">
<path d="M16.5543 18.1198H14.7281L25.6066 29.2359V31.817H23.0873L9.67093 18.1198H3.57396V31.817H0V0H16.5543C18.9198 0.0481447 21.1723 1.02383 22.8283 2.71764C24.4843 4.41146 25.4118 6.68842 25.4118 9.05988C25.4118 11.4313 24.4843 13.7083 22.8283 15.4021C21.1723 17.0959 18.9198 18.0716 16.5543 18.1198ZM3.57396 3.58213V14.5377H16.5543C17.979 14.5004 19.333 13.9069 20.3275 12.8836C21.3221 11.8604 21.8787 10.4884 21.8787 9.05988C21.8787 7.63137 21.3221 6.25933 20.3275 5.23612C19.333 4.2129 17.979 3.61942 16.5543 3.58213H3.57396Z" fill="white"/>
<path d="M42.6792 6.86925C45.9812 6.87321 49.1469 8.18967 51.4817 10.5299C53.8166 12.8701 55.1301 16.0429 55.134 19.3525V31.8358H51.5601V19.3338C51.5601 16.9731 50.6244 14.7091 48.9589 13.0398C47.2934 11.3705 45.0346 10.4327 42.6792 10.4327C40.3238 10.4327 38.065 11.3705 36.3995 13.0398C34.734 14.7091 33.7983 16.9731 33.7983 19.3338C33.8007 19.387 33.8095 19.4396 33.8244 19.4907C33.8393 19.5418 33.8481 19.5944 33.8505 19.6476H33.7983V31.8171H30.2244V0.213013H33.7983V10.6045C34.9414 9.40145 36.3205 8.44851 37.8489 7.80567C39.3773 7.16283 41.0219 6.84401 42.6792 6.86925Z" fill="#F7931E" stroke="#F7931E" stroke-width="0.278483" stroke-miterlimit="10"/>
<path d="M70.4734 28.2349C72.2023 28.242 73.8923 27.7208 75.3181 26.7408C76.7407 25.8072 77.867 24.4852 78.5642 22.9308H82.4027C81.6278 25.4988 80.0509 27.7496 77.904 29.352C75.7572 30.9543 73.1538 31.8236 70.4771 31.8319C68.0163 31.8312 65.611 31.0994 63.565 29.7291C61.5191 28.3588 59.9242 26.4114 58.982 24.133C58.0398 21.8546 57.7926 19.3474 58.2714 16.9282C58.7503 14.509 59.9339 12.2863 61.6726 10.5411C63.4113 8.79577 65.6272 7.60616 68.0401 7.12255C70.4531 6.63895 72.955 6.88305 75.2296 7.82399C77.5042 8.76492 79.4496 10.3605 80.8198 12.4091C82.1901 14.4577 82.9238 16.8674 82.9282 19.3337H61.5925C61.5925 21.6945 62.5282 23.9585 64.1936 25.6278C65.8591 27.2971 68.118 28.2349 70.4734 28.2349ZM75.3181 11.8782C73.8714 10.9347 72.1826 10.4325 70.4566 10.4325C68.7306 10.4325 67.0417 10.9347 65.595 11.8782C64.171 12.8108 63.0484 14.1385 62.3639 15.6993H78.5492C77.8688 14.1404 76.7516 12.813 75.3331 11.8782H75.3181Z" fill="white"/>
<path d="M98.3266 6.8691C101.629 6.87305 104.794 8.18951 107.129 10.5297C109.464 12.8699 110.778 16.0428 110.781 19.3523V31.8356H107.208V19.3337C107.16 17.004 106.203 14.7859 104.542 13.1552C102.882 11.5245 100.65 10.6112 98.3248 10.6112C96 10.6112 93.7677 11.5245 92.1071 13.1552C90.4464 14.7859 89.4897 17.004 89.442 19.3337V31.8169H85.8718V6.79065H89.442V10.6044C90.5857 9.401 91.9654 8.44792 93.4944 7.80508C95.0235 7.16224 96.6687 6.84356 98.3266 6.8691Z" fill="white"/>
<path d="M135.062 0.213013H138.632V31.8171H135.062V28.0818C133.329 29.8509 131.11 31.063 128.688 31.5636C126.266 32.0642 123.75 31.8307 121.46 30.8927C119.171 29.9548 117.212 28.355 115.833 26.2971C114.454 24.2392 113.718 21.8164 113.718 19.3376C113.718 16.8587 114.454 14.436 115.833 12.3781C117.212 10.3202 119.171 8.72032 121.46 7.78239C123.75 6.84446 126.266 6.6109 128.688 7.11151C131.11 7.61211 133.329 8.8242 135.062 10.5933V0.213013ZM119.897 25.6128C121.352 27.0671 123.264 27.971 125.309 28.1704C127.354 28.3699 129.405 27.8526 131.112 26.7066C132.819 25.5607 134.076 23.857 134.671 21.8858C135.265 19.9146 135.159 17.7979 134.371 15.8963C133.583 13.9947 132.161 12.4258 130.348 11.4569C128.535 10.488 126.443 10.1791 124.429 10.5827C122.414 10.9864 120.601 12.0776 119.299 13.6706C117.997 15.2636 117.287 17.2597 117.289 19.3189C117.27 20.4934 117.492 21.6592 117.941 22.7443C118.389 23.8294 119.055 24.8108 119.897 25.6277V25.6128Z" fill="white"/>
<path d="M162.912 6.7981H166.486V31.8244H162.912V28.0891C161.179 29.8582 158.96 31.0703 156.538 31.5709C154.116 32.0715 151.6 31.838 149.31 30.9C147.021 29.9621 145.062 28.3622 143.683 26.3044C142.304 24.2465 141.568 21.8237 141.568 19.3449C141.568 16.866 142.304 14.4432 143.683 12.3853C145.062 10.3274 147.021 8.72759 149.31 7.78966C151.6 6.85173 154.116 6.61819 156.538 7.1188C158.96 7.6194 161.179 8.83149 162.912 10.6006V6.7981ZM147.751 25.6275C149.206 27.0819 151.118 27.9857 153.163 28.1852C155.208 28.3846 157.259 27.8673 158.966 26.7214C160.673 25.5754 161.93 23.8717 162.525 21.9006C163.119 19.9294 163.013 17.8127 162.225 15.9111C161.436 14.0094 160.015 12.4405 158.202 11.4716C156.389 10.5028 154.297 10.1938 152.282 10.5975C150.268 11.0011 148.455 12.0924 147.153 13.6854C145.851 15.2783 145.141 17.2744 145.142 19.3336C145.126 20.5056 145.349 21.6686 145.797 22.751C146.246 23.8334 146.911 24.8123 147.751 25.6275Z" fill="white"/>
<path d="M175.676 20.1592L177.506 23.8758L181.601 24.4734L178.639 27.3682L179.339 31.4546L175.676 29.5272L172.013 31.4546L172.713 27.3682L169.75 24.4734L173.846 23.8758L175.676 20.1592Z" fill="#F7931E" stroke="#F7931E" stroke-width="0.278483" stroke-miterlimit="10"/>
</g>
<defs>
<clipPath id="clip0_129_14728">
<rect width="182" height="32" fill="white"/>
</clipPath>
</defs>
</svg>
