<svg width="54" height="64" viewBox="0 0 54 64" fill="none" xmlns="http://www.w3.org/2000/svg">
<g filter="url(#filter0_d_0_246)">
<path d="M26.3007 35.5958C26.6457 35.4182 27.055 35.4167 27.4013 35.592L43.6359 43.8094C44.5209 44.2574 44.5209 45.5212 43.6359 45.9692L27.4013 54.1866C27.055 54.3619 26.6457 54.3605 26.3007 54.1828L10.339 45.9654C9.46385 45.5149 9.46385 44.2637 10.339 43.8132L26.3007 35.5958Z" fill="black" fill-opacity="0.01"/>
</g>
<path d="M5.82763 15.5016C5.82763 13.3196 7.00223 11.3066 8.90182 10.233L24.0311 1.68274C25.8788 0.638523 28.1385 0.638524 29.9861 1.68274L45.1154 10.233C47.015 11.3066 48.1896 13.3196 48.1896 15.5016V32.3801C48.1896 34.5621 47.015 36.5751 45.1154 37.6486L29.9861 46.1989C28.1384 47.2432 25.8788 47.2432 24.0311 46.1989L8.90182 37.6486C7.00223 36.5751 5.82763 34.5621 5.82763 32.3801V15.5016Z" fill="#E3FFF1"/>
<path d="M7.84487 16.4764C7.84487 14.3066 9.00652 12.3028 10.8895 11.2246L24.0015 3.71688C25.8644 2.65025 28.1529 2.65025 30.0157 3.71688L43.1277 11.2246C45.0107 12.3028 46.1724 14.3066 46.1724 16.4764V31.4053C46.1724 33.5751 45.0107 35.5789 43.1277 36.657L30.0157 44.1648C28.1529 45.2314 25.8644 45.2314 24.0016 44.1648L10.8895 36.657C9.00653 35.5789 7.84487 33.5751 7.84487 31.4053V16.4764Z" fill="#57EBA1"/>
<path d="M27.0086 25.8794C27.0086 23.5412 28.3556 21.4122 30.4684 20.4108L43.2912 14.3333C44.6295 13.699 46.1724 14.6751 46.1724 16.1562V31.4051C46.1724 33.5749 45.0107 35.5787 43.1277 36.6568L30.0282 44.1574C28.6834 44.9274 27.0086 43.9565 27.0086 42.4068L27.0086 34.9135L27.0086 25.8794Z" fill="#39D98A"/>
<path d="M7.84487 16.1608C7.84487 14.6786 9.38988 13.7025 10.7284 14.3391L23.556 20.4394C25.6649 21.4424 27.0086 23.5693 27.0086 25.9046V41.6344C27.0086 41.6344 27.0251 43.0758 27.3646 43.561C27.6556 43.9768 28.1234 44.2643 28.5465 44.3541C29.1576 44.4838 29.7851 44.2852 29.7851 44.2852C28.0659 45.2767 25.9494 45.28 24.2272 44.2939L10.8895 36.6569C9.00653 35.5787 7.84487 33.575 7.84487 31.4051V16.1608Z" fill="#06C270"/>
<defs>
<filter id="filter0_d_0_246" x="9.81131e-05" y="25.779" width="53.9821" height="38.2209" filterUnits="userSpaceOnUse" color-interpolation-filters="sRGB">
<feFlood flood-opacity="0" result="BackgroundImageFix"/>
<feColorMatrix in="SourceAlpha" type="matrix" values="0 0 0 0 0 0 0 0 0 0 0 0 0 0 0 0 0 0 127 0" result="hardAlpha"/>
<feOffset/>
<feGaussianBlur stdDeviation="4.8"/>
<feColorMatrix type="matrix" values="0 0 0 0 0.027451 0 0 0 0 0.870588 0 0 0 0 0.501961 0 0 0 0.4 0"/>
<feBlend mode="normal" in2="BackgroundImageFix" result="effect1_dropShadow_0_246"/>
<feBlend mode="normal" in="SourceGraphic" in2="effect1_dropShadow_0_246" result="shape"/>
</filter>
</defs>
</svg>
