<svg width="30" height="30" viewBox="0 0 30 30" fill="none" xmlns="http://www.w3.org/2000/svg">
<path d="M16.1325 0C17.3265 0 18.4077 0.63 19.0047 1.56C19.2952 2.01 19.4888 2.565 19.4404 3.15C19.4081 3.6 19.5533 4.05 19.8115 4.47C20.6345 5.745 22.4578 6.225 23.8778 5.505C25.4753 4.635 27.4923 5.16 28.4121 6.645L29.4932 8.415C30.4291 9.9 29.9128 11.805 28.2991 12.66C26.9276 13.425 26.4435 15.12 27.2664 16.41C27.5246 16.815 27.8151 17.16 28.2669 17.37C28.8316 17.655 29.2673 18.105 29.5739 18.555C30.1709 19.485 30.1225 20.625 29.5416 21.63L28.4121 23.43C27.8151 24.39 26.7017 24.99 25.556 24.99C24.9912 24.99 24.3619 24.84 23.8456 24.54C23.426 24.285 22.9419 24.195 22.4256 24.195C20.8281 24.195 19.4888 25.44 19.4404 26.925C19.4404 28.65 17.9559 30 16.1002 30H13.9057C12.0339 30 10.5493 28.65 10.5493 26.925C10.5171 25.44 9.17777 24.195 7.58029 24.195C7.0478 24.195 6.56371 24.285 6.16031 24.54C5.64395 24.84 4.99851 24.99 4.44988 24.99C3.28807 24.99 2.17468 24.39 1.57764 23.43L0.464242 21.63C-0.132796 20.655 -0.165069 19.485 0.431969 18.555C0.690148 18.105 1.17423 17.655 1.72286 17.37C2.17468 17.16 2.46513 16.815 2.73944 16.41C3.54625 15.12 3.06217 13.425 1.69059 12.66C0.0931099 11.805 -0.423248 9.9 0.496514 8.415L1.57764 6.645C2.51354 5.16 4.51442 4.635 6.12804 5.505C7.53188 6.225 9.35527 5.745 10.1782 4.47C10.4364 4.05 10.5816 3.6 10.5493 3.15C10.5171 2.565 10.6946 2.01 11.0012 1.56C11.5982 0.63 12.6793 0.03 13.8573 0H16.1325ZM15.0191 10.77C12.4857 10.77 10.4364 12.66 10.4364 15.015C10.4364 17.37 12.4857 19.245 15.0191 19.245C17.5524 19.245 19.5533 17.37 19.5533 15.015C19.5533 12.66 17.5524 10.77 15.0191 10.77Z" fill="#64748B"/>
</svg>
