<svg width="54" height="64" viewBox="0 0 54 64" fill="none" xmlns="http://www.w3.org/2000/svg">
<g filter="url(#filter0_d_0_58)">
<path d="M26.301 35.5956C26.6461 35.4179 27.0554 35.4165 27.4016 35.5918L43.6363 43.8093C44.5213 44.2572 44.5213 45.5211 43.6363 45.9691L27.4016 54.1865C27.0554 54.3618 26.6461 54.3604 26.301 54.1828L10.3392 45.9653C9.46405 45.5147 9.46404 44.2636 10.3392 43.813L26.301 35.5956Z" fill="black" fill-opacity="0.01"/>
</g>
<path d="M5.8278 15.5017C5.8278 13.3197 7.0024 11.3067 8.90202 10.2331L24.0314 1.68275C25.8791 0.638527 28.1388 0.638529 29.9865 1.68275L45.1159 10.2331C47.0155 11.3067 48.1901 13.3197 48.1901 15.5017V32.3803C48.1901 34.5623 47.0155 36.5754 45.1159 37.6489L29.9865 46.1993C28.1388 47.2435 25.8791 47.2435 24.0314 46.1993L8.90201 37.6489C7.0024 36.5754 5.8278 34.5623 5.8278 32.3803V15.5017Z" fill="#E6FFFF"/>
<path d="M7.84505 16.4765C7.84505 14.3067 9.00672 12.3029 10.8897 11.2247L24.0019 3.71691C25.8647 2.65027 28.1532 2.65027 30.016 3.71691L43.1282 11.2247C45.0112 12.3029 46.1728 14.3067 46.1728 16.4765V31.4055C46.1728 33.5754 45.0112 35.5791 43.1282 36.6573L30.016 44.1651C28.1532 45.2318 25.8647 45.2318 24.0019 44.1651L10.8897 36.6573C9.00672 35.5791 7.84505 33.5754 7.84505 31.4055V16.4765Z" fill="#A9EFF2"/>
<path d="M27.0089 25.8796C27.0089 23.5414 28.3559 21.4124 30.4688 20.4109L43.2916 14.3334C44.63 13.6991 46.1728 14.6752 46.1728 16.1563V31.4053C46.1728 33.5752 45.0112 35.5789 43.1282 36.6571L30.0286 44.1578C28.6837 44.9278 27.0089 43.9568 27.0089 42.4072L27.0089 34.9138L27.0089 25.8796Z" fill="#73DFE7"/>
<path d="M7.84505 16.161C7.84505 14.6787 9.39008 13.7026 10.7287 14.3392L23.5563 20.4396C25.6652 21.4425 27.0089 23.5695 27.0089 25.9048V41.6347C27.0089 41.6347 27.0255 43.0761 27.365 43.5613C27.656 43.9772 28.1237 44.2646 28.5468 44.3544C29.158 44.4841 29.7854 44.2856 29.7854 44.2856C28.0663 45.277 25.9498 45.2803 24.2275 44.2942L10.8897 36.6572C9.00672 35.579 7.84505 33.5752 7.84505 31.4054V16.161Z" fill="#00CFDE"/>
<defs>
<filter id="filter0_d_0_58" x="-2.50094e-05" y="25.7787" width="53.9829" height="38.2212" filterUnits="userSpaceOnUse" color-interpolation-filters="sRGB">
<feFlood flood-opacity="0" result="BackgroundImageFix"/>
<feColorMatrix in="SourceAlpha" type="matrix" values="0 0 0 0 0 0 0 0 0 0 0 0 0 0 0 0 0 0 127 0" result="hardAlpha"/>
<feOffset/>
<feGaussianBlur stdDeviation="4.8"/>
<feColorMatrix type="matrix" values="0 0 0 0 0 0 0 0 0 0.811765 0 0 0 0 0.870588 0 0 0 0.4 0"/>
<feBlend mode="normal" in2="BackgroundImageFix" result="effect1_dropShadow_0_58"/>
<feBlend mode="normal" in="SourceGraphic" in2="effect1_dropShadow_0_58" result="shape"/>
</filter>
</defs>
</svg>
