<svg width="18" height="18" viewBox="0 0 18 18" fill="none" xmlns="http://www.w3.org/2000/svg">
<path d="M13.9077 13.5955L13.9259 13.6136L13.946 13.6298L15.862 15.1764L15.9221 15.2249C16.0452 15.4205 16.0224 15.6841 15.8538 15.8545C15.665 16.0454 15.3628 16.0485 15.1703 15.8636L13.5923 14.0551L13.5923 14.0551L13.5897 14.0522L13.541 13.9972C13.5024 13.9447 13.4807 13.8799 13.4807 13.8123C13.4807 13.7296 13.5131 13.6514 13.5691 13.5943C13.6641 13.5012 13.8132 13.5016 13.9077 13.5955ZM7.93323 2C9.50508 2 11.0137 2.63108 12.1268 3.75618C13.2401 4.88145 13.8665 6.40878 13.8665 8.00244C13.8665 11.3226 11.205 14.0049 7.93323 14.0049C4.66143 14.0049 2 11.3226 2 8.00244C2 4.68233 4.66143 2 7.93323 2Z" stroke="#BB78EF"/>
</svg>
