<svg width="57" height="66" viewBox="0 0 57 66" fill="none" xmlns="http://www.w3.org/2000/svg">
<g filter="url(#filter0_d_0_272)">
<path d="M27.7053 35.4126C28.1189 35.1996 28.6095 35.1979 29.0246 35.408L44.5976 43.2906C45.6585 43.8276 45.6585 45.3426 44.5976 45.8796L29.0246 53.7621C28.6095 53.9722 28.1189 53.9705 27.7053 53.7576L12.394 45.875C11.3449 45.335 11.3449 43.8352 12.394 43.2951L27.7053 35.4126Z" fill="black" fill-opacity="0.01"/>
</g>
<path d="M7.48361 16.1223C7.48361 13.5067 8.89164 11.0937 11.1687 9.80677L24.952 2.01715C27.1669 0.765416 29.8756 0.765418 32.0905 2.01715L45.8738 9.80677C48.1509 11.0937 49.5589 13.5067 49.5589 16.1223V31.4353C49.5589 34.0509 48.1509 36.464 45.8738 37.7509L32.0905 45.5405C29.8756 46.7923 27.1669 46.7923 24.952 45.5405L11.1687 37.7509C8.89163 36.464 7.48361 34.0509 7.48361 31.4353V16.1223Z" fill="#FFFEE6"/>
<path d="M9.4872 17.0859C9.4872 14.4848 10.8797 12.0829 13.1369 10.7904L24.9166 4.04555C27.1496 2.76695 29.8929 2.76695 32.1259 4.04555L43.9056 10.7904C46.1628 12.0829 47.5554 14.4848 47.5554 17.0859V30.4718C47.5554 33.0728 46.1628 35.4748 43.9057 36.7672L32.1259 43.5121C29.8929 44.7907 27.1497 44.7907 24.9166 43.5121L13.1369 36.7672C10.8797 35.4748 9.4872 33.0728 9.4872 30.4718V17.0859Z" fill="#FDED72"/>
<path d="M28.5213 26.4915C28.5213 23.6887 30.1359 21.1366 32.6687 19.9362L44.1016 14.5174C45.7059 13.757 47.5554 14.9271 47.5554 16.7026V30.4721C47.5554 33.0731 46.1628 35.4751 43.9057 36.7675L32.141 43.5038C30.5289 44.4269 28.5213 43.263 28.5213 41.4053L28.5213 34.6778L28.5213 26.4915Z" fill="#FDDD48"/>
<path d="M9.4872 16.7077C9.4872 14.9309 11.3393 13.7608 12.9438 14.5239L24.3825 19.9637C26.9106 21.166 28.5213 23.7156 28.5213 26.515V41.3527C28.5213 41.3527 28.5377 42.7843 28.8749 43.2662C29.1639 43.6792 29.6285 43.9647 30.0487 44.0539C30.6558 44.1827 31.2789 43.9856 31.2789 43.9856C29.5714 44.9703 27.4693 44.9736 25.7587 43.9941L13.1369 36.7671C10.8797 35.4746 9.4872 33.0727 9.4872 30.4717V16.7077Z" fill="#FFCC00"/>
<defs>
<filter id="filter0_d_0_272" x="0.000220694" y="23.6446" width="57" height="41.8807" filterUnits="userSpaceOnUse" color-interpolation-filters="sRGB">
<feFlood flood-opacity="0" result="BackgroundImageFix"/>
<feColorMatrix in="SourceAlpha" type="matrix" values="0 0 0 0 0 0 0 0 0 0 0 0 0 0 0 0 0 0 127 0" result="hardAlpha"/>
<feOffset/>
<feGaussianBlur stdDeviation="5.7931"/>
<feColorMatrix type="matrix" values="0 0 0 0 1 0 0 0 0 0.8 0 0 0 0 0 0 0 0 0.4 0"/>
<feBlend mode="normal" in2="BackgroundImageFix" result="effect1_dropShadow_0_272"/>
<feBlend mode="normal" in="SourceGraphic" in2="effect1_dropShadow_0_272" result="shape"/>
</filter>
</defs>
</svg>
