<svg width="54" height="64" viewBox="0 0 54 64" fill="none" xmlns="http://www.w3.org/2000/svg">
<g filter="url(#filter0_d_0_46)">
<path d="M26.3008 35.5958C26.6459 35.4182 27.0552 35.4167 27.4014 35.592L43.636 43.8094C44.521 44.2574 44.521 45.5212 43.636 45.9692L27.4014 54.1866C27.0552 54.3619 26.6459 54.3605 26.3008 54.1828L10.3391 45.9654C9.46397 45.5149 9.46397 44.2637 10.3391 43.8132L26.3008 35.5958Z" fill="black" fill-opacity="0.01"/>
</g>
<path d="M5.82775 15.5016C5.82775 13.3196 7.00235 11.3066 8.90195 10.233L24.0312 1.68274C25.8789 0.638523 28.1386 0.638524 29.9863 1.68274L45.1155 10.233C47.0151 11.3066 48.1897 13.3196 48.1897 15.5016V32.3801C48.1897 34.5621 47.0151 36.5751 45.1155 37.6486L29.9863 46.1989C28.1386 47.2432 25.8789 47.2432 24.0312 46.1989L8.90195 37.6486C7.00235 36.5751 5.82775 34.5621 5.82775 32.3801V15.5016Z" fill="#E3FFF1"/>
<path d="M7.84499 16.4764C7.84499 14.3066 9.00665 12.3028 10.8896 11.2246L24.0017 3.71688C25.8645 2.65025 28.153 2.65025 30.0158 3.71688L43.1278 11.2246C45.0108 12.3028 46.1725 14.3066 46.1725 16.4764V31.4053C46.1725 33.5751 45.0108 35.5789 43.1279 36.657L30.0158 44.1648C28.153 45.2314 25.8645 45.2314 24.0017 44.1648L10.8896 36.657C9.00665 35.5789 7.84499 33.5751 7.84499 31.4053V16.4764Z" fill="#57EBA1"/>
<path d="M27.0087 25.8794C27.0087 23.5412 28.3557 21.4122 30.4686 20.4108L43.2913 14.3333C44.6297 13.699 46.1725 14.6751 46.1725 16.1562V31.4051C46.1725 33.5749 45.0108 35.5787 43.1279 36.6568L30.0283 44.1574C28.6835 44.9274 27.0087 43.9565 27.0087 42.4068L27.0087 34.9135L27.0087 25.8794Z" fill="#39D98A"/>
<path d="M7.84499 16.1608C7.84499 14.6786 9.39 13.7025 10.7286 14.3391L23.5561 20.4394C25.665 21.4424 27.0087 23.5693 27.0087 25.9046V41.6344C27.0087 41.6344 27.0253 43.0758 27.3648 43.561C27.6557 43.9768 28.1235 44.2643 28.5466 44.3541C29.1578 44.4838 29.7852 44.2852 29.7852 44.2852C28.066 45.2767 25.9496 45.28 24.2273 44.2939L10.8896 36.6569C9.00665 35.5787 7.84499 33.575 7.84499 31.4051V16.1608Z" fill="#06C270"/>
<defs>
<filter id="filter0_d_0_46" x="-2.50092e-05" y="25.779" width="53.9824" height="38.2209" filterUnits="userSpaceOnUse" color-interpolation-filters="sRGB">
<feFlood flood-opacity="0" result="BackgroundImageFix"/>
<feColorMatrix in="SourceAlpha" type="matrix" values="0 0 0 0 0 0 0 0 0 0 0 0 0 0 0 0 0 0 127 0" result="hardAlpha"/>
<feOffset/>
<feGaussianBlur stdDeviation="4.8"/>
<feColorMatrix type="matrix" values="0 0 0 0 0.027451 0 0 0 0 0.870588 0 0 0 0 0.501961 0 0 0 0.4 0"/>
<feBlend mode="normal" in2="BackgroundImageFix" result="effect1_dropShadow_0_46"/>
<feBlend mode="normal" in="SourceGraphic" in2="effect1_dropShadow_0_46" result="shape"/>
</filter>
</defs>
</svg>
