<svg width="30" height="30" viewBox="0 0 30 30" fill="none" xmlns="http://www.w3.org/2000/svg">
<path d="M11.4672 14.9201C11.8036 14.6701 12.1126 14.3623 12.3922 14.0121C11.4101 12.2842 10.8405 10.1737 10.8405 7.93683C10.8405 6.44188 11.0927 5.02657 11.5346 3.74696C10.8468 3.21183 10.0608 2.88134 9.21052 2.88134C6.60645 2.88134 4.49874 5.75049 4.49874 9.29349C4.49874 11.7722 5.53466 13.9175 7.04717 14.9851L0.660352 18.4618C0.262457 18.6805 0 19.2063 0 19.7936V25.6891C0 26.4793 0.471837 27.1193 1.05202 27.1193H5.2733V20.9332C5.2733 19.3325 6.03029 17.8847 7.2042 17.2417L11.4672 14.9201Z" fill="#64748B"/>
<path d="M29.1929 19.2883L23.6937 16.22L21.3682 14.9229C22.384 14.1746 23.2087 13.02 23.7486 11.6286C24.1765 10.5237 24.4317 9.27318 24.4317 7.93621C24.4317 7.18574 24.3299 6.4738 24.1879 5.78584C23.496 2.45432 21.2712 0 18.6009 0C15.9807 0 13.7895 2.36699 13.0552 5.60389C12.8858 6.34623 12.769 7.11853 12.769 7.93621C12.769 9.35709 13.0527 10.6812 13.5348 11.8332C14.0923 13.1694 14.9184 14.2717 15.924 14.9798L13.6966 16.1931L8.01987 19.2853C7.52644 19.5554 7.20249 20.2061 7.20249 20.933V27.1192V28.2292C7.20249 29.207 7.78487 29.9999 8.50452 29.9999H28.698C29.4172 29.9999 30 29.207 30 28.2292V27.1192V20.933C30 20.2091 29.6812 19.5644 29.1929 19.2883Z" fill="#64748B"/>
</svg>
