<svg width="57" height="66" viewBox="0 0 57 66" fill="none" xmlns="http://www.w3.org/2000/svg">
<g filter="url(#filter0_d_0_70)">
<path d="M27.705 35.4126C28.1186 35.1996 28.6093 35.1979 29.0243 35.408L44.5974 43.2906C45.6582 43.8276 45.6582 45.3426 44.5974 45.8796L29.0243 53.7621C28.6093 53.9722 28.1186 53.9705 27.705 53.7576L12.3937 45.875C11.3447 45.335 11.3447 43.8352 12.3937 43.2951L27.705 35.4126Z" fill="black" fill-opacity="0.01"/>
</g>
<path d="M7.48337 16.1223C7.48337 13.5067 8.89139 11.0937 11.1685 9.80677L24.9518 2.01715C27.1667 0.765416 29.8754 0.765418 32.0903 2.01715L45.8736 9.80677C48.1507 11.0937 49.5587 13.5067 49.5587 16.1223V31.4353C49.5587 34.0509 48.1507 36.464 45.8736 37.7509L32.0903 45.5405C29.8754 46.7923 27.1667 46.7923 24.9518 45.5405L11.1685 37.7509C8.89139 36.464 7.48337 34.0509 7.48337 31.4353V16.1223Z" fill="#FFFEE6"/>
<path d="M9.48671 17.0859C9.48671 14.4848 10.8792 12.0829 13.1364 10.7904L24.9161 4.04555C27.1492 2.76695 29.8924 2.76695 32.1255 4.04555L43.9052 10.7904C46.1624 12.0829 47.5549 14.4848 47.5549 17.0859V30.4718C47.5549 33.0728 46.1624 35.4748 43.9052 36.7672L32.1255 43.5121C29.8924 44.7907 27.1492 44.7907 24.9161 43.5121L13.1364 36.7672C10.8792 35.4748 9.48671 33.0728 9.48671 30.4718V17.0859Z" fill="#FDED72"/>
<path d="M28.5209 26.4915C28.5209 23.6887 30.1355 21.1366 32.6683 19.9362L44.1012 14.5174C45.7055 13.757 47.555 14.9271 47.555 16.7026V30.4721C47.555 33.0731 46.1625 35.4751 43.9053 36.7675L32.1406 43.5038C30.5285 44.4269 28.5209 43.263 28.5209 41.4053L28.5209 34.6778L28.5209 26.4915Z" fill="#FDDD48"/>
<path d="M9.48671 16.7077C9.48671 14.9309 11.3388 13.7608 12.9433 14.5239L24.382 19.9637C26.9101 21.166 28.5208 23.7156 28.5208 26.515V41.3527C28.5208 41.3527 28.5372 42.7843 28.8744 43.2662C29.1634 43.6792 29.628 43.9647 30.0482 44.0539C30.6553 44.1827 31.2784 43.9856 31.2784 43.9856C29.5709 44.9703 27.4688 44.9736 25.7582 43.9941L13.1364 36.7671C10.8792 35.4746 9.48671 33.0727 9.48671 30.4717V16.7077Z" fill="#FFCC00"/>
<defs>
<filter id="filter0_d_0_70" x="-2.38846e-05" y="23.6446" width="57" height="41.8807" filterUnits="userSpaceOnUse" color-interpolation-filters="sRGB">
<feFlood flood-opacity="0" result="BackgroundImageFix"/>
<feColorMatrix in="SourceAlpha" type="matrix" values="0 0 0 0 0 0 0 0 0 0 0 0 0 0 0 0 0 0 127 0" result="hardAlpha"/>
<feOffset/>
<feGaussianBlur stdDeviation="5.7931"/>
<feColorMatrix type="matrix" values="0 0 0 0 1 0 0 0 0 0.8 0 0 0 0 0 0 0 0 0.4 0"/>
<feBlend mode="normal" in2="BackgroundImageFix" result="effect1_dropShadow_0_70"/>
<feBlend mode="normal" in="SourceGraphic" in2="effect1_dropShadow_0_70" result="shape"/>
</filter>
</defs>
</svg>
