<svg width="32" height="32" viewBox="0 0 32 32" fill="none" xmlns="http://www.w3.org/2000/svg">
<path d="M16.819 32.0001C12.314 32.0001 8.08693 30.254 4.91645 27.0836C1.74598 23.9133 3.93898e-07 19.686 3.93898e-07 15.1809C-0.000672131 12.0731 0.859848 9.02586 2.48605 6.37746C4.11225 3.72907 6.44051 1.58309 9.21242 0.177733C9.49759 0.0323599 9.81927 -0.0257961 10.1373 0.0105244C10.4553 0.046845 10.7556 0.176033 11.0007 0.381962C11.2457 0.587891 11.4247 0.861438 11.5152 1.16846C11.6058 1.47547 11.6039 1.80236 11.5098 2.10831C10.7188 4.66318 10.6411 7.38563 11.285 9.98147C11.9289 12.5773 13.2699 14.9478 15.1632 16.8369C16.5219 18.2056 18.1386 19.2913 19.9197 20.0311C21.7008 20.7708 23.611 21.15 25.5396 21.1465C27.015 21.1476 28.4821 20.9263 29.8915 20.4901C30.1975 20.3959 30.5244 20.394 30.8315 20.4845C31.1385 20.5751 31.4121 20.754 31.6181 20.9991C31.824 21.2442 31.9532 21.5445 31.9895 21.8626C32.0258 22.1806 31.9676 22.5023 31.8222 22.7875C30.4168 25.5594 28.2708 27.8877 25.6224 29.5139C22.974 31.1402 19.9268 32.0007 16.819 32.0001ZM9.15422 2.65146C7.00475 3.95928 5.22917 5.79968 3.99923 7.99464C2.76929 10.1896 2.12662 12.6648 2.13338 15.1809C2.13338 23.2786 8.72127 29.8667 16.819 29.8667C19.3351 29.8735 21.8103 29.2308 24.0053 28.0009C26.2003 26.7709 28.0407 24.9953 29.3485 22.8459C28.0995 23.1349 26.8217 23.2806 25.5397 23.2801C23.3309 23.2843 21.1431 22.8503 19.103 22.0033C17.063 21.1563 15.2112 19.9131 13.6549 18.3456C11.6331 16.3276 10.1589 13.8277 9.37142 11.0818C8.58394 8.33591 8.50919 5.43465 9.15422 2.65186V2.65146Z" fill="#642EFF"/>
</svg>
