<svg width="50" height="62" viewBox="0 0 50 62" fill="none" xmlns="http://www.w3.org/2000/svg">
<g filter="url(#filter0_d_0_34)">
<path d="M24.4368 35.4838C24.6994 35.3486 25.0108 35.3476 25.2743 35.4809L42.1269 44.0112C42.8003 44.352 42.8003 45.3138 42.1269 45.6546L25.2743 54.1849C25.0108 54.3182 24.6994 54.3172 24.4368 54.182L7.86746 45.6518C7.20154 45.3089 7.20154 44.3569 7.86746 44.014L24.4368 35.4838Z" fill="black" fill-opacity="0.01"/>
</g>
<path d="M3.85885 14.6424C3.85885 12.982 4.75266 11.4502 6.19815 10.6333L22.7475 1.28048C24.1535 0.485883 25.873 0.485883 27.279 1.28048L43.8283 10.6333C45.2738 11.4502 46.1676 12.982 46.1676 14.6424V33.1791C46.1676 34.8395 45.2738 36.3713 43.8283 37.1882L27.279 46.541C25.873 47.3356 24.1535 47.3356 22.7475 46.541L6.19815 37.1882C4.75265 36.3713 3.85885 34.8395 3.85885 33.1791V14.6424Z" fill="#E5F0FF"/>
<path d="M5.87355 15.6214C5.87355 13.9703 6.75751 12.4455 8.19036 11.6251L22.725 3.30277C24.1425 2.49112 25.8839 2.49112 27.3014 3.30277L41.8361 11.6251C43.2689 12.4455 44.1529 13.9703 44.1529 15.6214V32.2001C44.1529 33.8512 43.2689 35.376 41.8361 36.1964L27.3014 44.5187C25.8839 45.3304 24.1425 45.3304 22.725 44.5187L8.19036 36.1964C6.75751 35.376 5.87355 33.8512 5.87355 32.2001V15.6214Z" fill="#9DBFF9"/>
<path d="M25.0132 24.9364C25.0132 23.1572 26.0382 21.5371 27.646 20.7751L41.9604 13.9906C42.9789 13.5079 44.1529 14.2507 44.1529 15.3777V32.1999C44.1529 33.851 43.2689 35.3758 41.8361 36.1962L27.311 44.5131C26.2876 45.099 25.0132 44.3602 25.0132 43.181L25.0132 34.8696L25.0132 24.9364Z" fill="#5B8DEF"/>
<path d="M5.87355 15.3812C5.87355 14.2533 7.04922 13.5106 8.06781 13.995L22.3859 20.8042C23.9907 21.5674 25.0132 23.1858 25.0132 24.9629V41.5821C25.0132 41.5821 25.0297 43.0217 25.3688 43.5062C25.6594 43.9215 26.1266 44.2086 26.5492 44.2983C27.1595 44.4278 27.7862 44.2296 27.7862 44.2296L27.3056 44.5068C25.8862 45.3253 24.1387 45.328 22.7168 44.5139L8.19036 36.1963C6.75751 35.3758 5.87355 33.8511 5.87355 32.2V15.3812Z" fill="#0063F7"/>
<defs>
<filter id="filter0_d_0_34" x="-7.73351e-05" y="28.0137" width="50.0002" height="33.6387" filterUnits="userSpaceOnUse" color-interpolation-filters="sRGB">
<feFlood flood-opacity="0" result="BackgroundImageFix"/>
<feColorMatrix in="SourceAlpha" type="matrix" values="0 0 0 0 0 0 0 0 0 0 0 0 0 0 0 0 0 0 127 0" result="hardAlpha"/>
<feOffset/>
<feGaussianBlur stdDeviation="3.65714"/>
<feColorMatrix type="matrix" values="0 0 0 0 0 0 0 0 0 0.34902 0 0 0 0 0.870588 0 0 0 0.4 0"/>
<feBlend mode="normal" in2="BackgroundImageFix" result="effect1_dropShadow_0_34"/>
<feBlend mode="normal" in="SourceGraphic" in2="effect1_dropShadow_0_34" result="shape"/>
</filter>
</defs>
</svg>
