<svg width="30" height="30" viewBox="0 0 30 30" fill="none" xmlns="http://www.w3.org/2000/svg">
<path d="M28.9538 23.0688L12.5882 23.0684V23.0688C12.5868 23.0688 12.5854 23.0684 12.584 23.0684C12.0047 23.0684 11.535 23.5385 11.535 24.1172C11.535 24.1366 11.5397 24.1542 11.5406 24.1732V28.9502H11.5457C11.5457 29.5271 12.0117 29.9949 12.5877 29.9986V29.9991H28.9534V29.9982C29.5294 29.9945 29.9954 29.5266 29.9954 28.9497V24.1635C29.9963 24.1477 30 24.1325 30 24.1168C30.0005 23.5389 29.5322 23.0702 28.9538 23.0688Z" fill="#64748B"/>
<path d="M5.88285 23.0684H1.04944H1.04897C0.469704 23.0684 0 23.5385 0 24.1172V28.9497C0 29.529 0.469703 29.9986 1.04851 29.9986H1.04897H5.88193C6.4612 29.9986 6.9309 29.529 6.9309 28.9497V24.1172C6.93182 23.5385 6.46212 23.0684 5.88285 23.0684Z" fill="#64748B"/>
<path d="M28.9538 11.5171L12.5882 11.5166V11.5171C12.5868 11.5171 12.5854 11.5166 12.584 11.5166C12.0047 11.5166 11.535 11.9867 11.535 12.5655C11.535 12.5849 11.5397 12.6025 11.5406 12.6214V17.3984H11.5457C11.5457 17.9754 12.0117 18.4432 12.5877 18.4469V18.4473H28.9534V18.4464C29.5294 18.4427 29.9954 17.9749 29.9954 17.398V12.6117C29.9963 12.596 30 12.5807 30 12.565C30.0005 11.9872 29.5322 11.5185 28.9538 11.5171Z" fill="#64748B"/>
<path d="M5.88285 11.5166H1.04944H1.04897C0.469704 11.5166 0 11.9867 0 12.5655V17.398C0 17.9772 0.469703 18.4469 1.04851 18.4469H1.04897H5.88193C6.4612 18.4469 6.9309 17.9772 6.9309 17.398V12.5655C6.93182 11.9867 6.46212 11.5166 5.88285 11.5166Z" fill="#64748B"/>
<path d="M11.5406 5.88231H11.5456C11.5456 6.45921 12.0116 6.92702 12.5877 6.93072V6.93118H28.9533V6.93026C29.5294 6.92656 29.9954 6.45875 29.9954 5.88185V1.09557C29.9963 1.07985 30 1.06459 30 1.04888C30 0.470584 29.5317 0.0018488 28.9533 0.00046201V0H12.5877V0.00046201C12.5863 0.00046201 12.5849 0 12.5835 0C12.0042 0 11.5345 0.470122 11.5345 1.04888C11.5345 1.06829 11.5392 1.08586 11.5401 1.10481V5.88231H11.5406Z" fill="#64748B"/>
<path d="M5.88285 0H1.04944H1.04897C0.469704 0 0 0.470122 0 1.04888V5.88138C0 6.4606 0.469703 6.93026 1.04851 6.93026H1.04897H5.88193C6.4612 6.93026 6.9309 6.4606 6.9309 5.88138V1.04888C6.93182 0.46966 6.46212 0 5.88285 0Z" fill="#64748B"/>
</svg>
