<svg width="54" height="64" viewBox="0 0 54 64" fill="none" xmlns="http://www.w3.org/2000/svg">
<g filter="url(#filter0_d_0_259)">
<path d="M26.3009 35.5956C26.6459 35.4179 27.0552 35.4165 27.4015 35.5918L43.6362 43.8093C44.5212 44.2572 44.5212 45.5211 43.6362 45.9691L27.4015 54.1865C27.0552 54.3618 26.6459 54.3604 26.3009 54.1828L10.339 45.9653C9.46392 45.5147 9.46392 44.2636 10.339 43.813L26.3009 35.5956Z" fill="black" fill-opacity="0.01"/>
</g>
<path d="M5.82767 15.5017C5.82767 13.3197 7.00228 11.3067 8.90189 10.2331L24.0313 1.68275C25.879 0.638527 28.1387 0.638529 29.9864 1.68275L45.1158 10.2331C47.0154 11.3067 48.19 13.3197 48.19 15.5017V32.3803C48.19 34.5623 47.0154 36.5754 45.1158 37.6489L29.9864 46.1993C28.1387 47.2435 25.879 47.2435 24.0313 46.1993L8.90189 37.6489C7.00228 36.5754 5.82767 34.5623 5.82767 32.3803V15.5017Z" fill="#E6FFFF"/>
<path d="M7.84493 16.4765C7.84493 14.3067 9.00659 12.3029 10.8896 11.2247L24.0017 3.71691C25.8646 2.65027 28.1531 2.65027 30.0159 3.71691L43.1281 11.2247C45.0111 12.3029 46.1727 14.3067 46.1727 16.4765V31.4055C46.1727 33.5754 45.0111 35.5791 43.1281 36.6573L30.0159 44.1651C28.1531 45.2318 25.8646 45.2318 24.0017 44.1651L10.8896 36.6573C9.0066 35.5791 7.84493 33.5754 7.84493 31.4055V16.4765Z" fill="#A9EFF2"/>
<path d="M27.0088 25.8796C27.0088 23.5414 28.3558 21.4124 30.4687 20.4109L43.2915 14.3334C44.6299 13.6991 46.1727 14.6752 46.1727 16.1563V31.4053C46.1727 33.5752 45.0111 35.5789 43.1281 36.6571L30.0284 44.1578C28.6836 44.9278 27.0088 43.9568 27.0088 42.4072L27.0088 34.9138L27.0088 25.8796Z" fill="#73DFE7"/>
<path d="M7.84493 16.161C7.84493 14.6787 9.38995 13.7026 10.7285 14.3392L23.5561 20.4396C25.6651 21.4425 27.0088 23.5695 27.0088 25.9048V41.6347C27.0088 41.6347 27.0253 43.0761 27.3649 43.5613C27.6558 43.9772 28.1236 44.2646 28.5467 44.3544C29.1579 44.4841 29.7853 44.2856 29.7853 44.2856C28.0661 45.277 25.9496 45.2803 24.2274 44.2942L10.8896 36.6572C9.0066 35.579 7.84493 33.5752 7.84493 31.4054V16.161Z" fill="#00CFDE"/>
<defs>
<filter id="filter0_d_0_259" x="9.81139e-05" y="25.7787" width="53.9825" height="38.2212" filterUnits="userSpaceOnUse" color-interpolation-filters="sRGB">
<feFlood flood-opacity="0" result="BackgroundImageFix"/>
<feColorMatrix in="SourceAlpha" type="matrix" values="0 0 0 0 0 0 0 0 0 0 0 0 0 0 0 0 0 0 127 0" result="hardAlpha"/>
<feOffset/>
<feGaussianBlur stdDeviation="4.8"/>
<feColorMatrix type="matrix" values="0 0 0 0 0 0 0 0 0 0.811765 0 0 0 0 0.870588 0 0 0 0.4 0"/>
<feBlend mode="normal" in2="BackgroundImageFix" result="effect1_dropShadow_0_259"/>
<feBlend mode="normal" in="SourceGraphic" in2="effect1_dropShadow_0_259" result="shape"/>
</filter>
</defs>
</svg>
